<svg xmlns="http://www.w3.org/2000/svg" version="1.1" xmlns:xlink="http://www.w3.org/1999/xlink" width="512" height="512" x="0" y="0" viewBox="0 0 512 512" style="enable-background:new 0 0 512 512" xml:space="preserve" class=""><g><g fill="#655e67"><path d="M64.156 21.724v468.552c0 11.998 9.726 21.724 21.724 21.724s21.724-9.726 21.724-21.724V21.724C107.603 9.726 97.877 0 85.88 0S64.156 9.726 64.156 21.724zM234.276 21.724v468.552c0 11.998 9.726 21.724 21.724 21.724s21.724-9.726 21.724-21.724V21.724C277.724 9.726 267.998 0 256 0s-21.724 9.726-21.724 21.724zM404.396 21.724v468.552c0 11.998 9.726 21.724 21.724 21.724s21.724-9.726 21.724-21.724V21.724C447.844 9.726 438.118 0 426.12 0s-21.724 9.726-21.724 21.724z" fill="#655e67" opacity="1" data-original="#655e67" class=""></path></g><path fill="#717ed4" d="M21.657 155.29v57.195c0 5.69 4.612 10.302 10.302 10.302h107.842c5.69 0 10.302-4.612 10.302-10.302V155.29c0-5.69-4.612-10.302-10.302-10.302H31.959c-5.69 0-10.302 4.612-10.302 10.302z" opacity="1" data-original="#717ed4" class=""></path><path fill="#f9bf64" d="M191.777 299.515v57.195c0 5.69 4.612 10.302 10.302 10.302h107.842c5.69 0 10.302-4.612 10.302-10.302v-57.195c0-5.69-4.612-10.302-10.302-10.302H202.079c-5.689.001-10.302 4.613-10.302 10.302z" opacity="1" data-original="#f9bf64"></path><path fill="#df646e" d="M361.898 155.29v57.195c0 5.69 4.612 10.302 10.302 10.302h107.842c5.69 0 10.302-4.612 10.302-10.302V155.29c0-5.69-4.612-10.302-10.302-10.302H372.199c-5.689 0-10.301 4.612-10.301 10.302z" opacity="1" data-original="#df646e"></path><path fill="#d82f3c" d="M480.041 144.988h-30.905c5.69 0 10.302 4.612 10.302 10.302v57.195c0 5.689-4.612 10.302-10.302 10.302h30.905c5.69 0 10.302-4.612 10.302-10.302V155.29c0-5.69-4.612-10.302-10.302-10.302z" opacity="1" data-original="#d82f3c"></path><path fill="#e9a761" d="M309.921 289.214h-30.905c5.69 0 10.302 4.612 10.302 10.302v57.195c0 5.69-4.612 10.302-10.302 10.302h30.905c5.69 0 10.302-4.612 10.302-10.302v-57.195c0-5.69-4.613-10.302-10.302-10.302z" opacity="1" data-original="#e9a761"></path><path fill="#5766cc" d="M139.801 144.988h-30.905c5.69 0 10.302 4.612 10.302 10.302v57.195c0 5.689-4.612 10.302-10.302 10.302h30.905c5.69 0 10.302-4.612 10.302-10.302V155.29c-.001-5.69-4.613-10.302-10.302-10.302z" opacity="1" data-original="#5766cc"></path></g></svg>