<svg xmlns="http://www.w3.org/2000/svg" version="1.1" xmlns:xlink="http://www.w3.org/1999/xlink" width="512" height="512" x="0" y="0" viewBox="0 0 24 24" style="enable-background:new 0 0 512 512" xml:space="preserve" class=""><g><g fill="#00847A"><path d="M4 9a1 1 0 1 1-2 0 1 1 0 0 1 2 0zm10 6a1 1 0 1 0 2 0 1 1 0 0 0-2 0zm2-12a1 1 0 1 0-2 0 1 1 0 0 0 2 0zM3 14a1 1 0 1 0 0 2 1 1 0 0 0 0-2zm5 7a1 1 0 1 0 2 0 1 1 0 0 0-2 0zM8 9a1 1 0 1 0 2 0 1 1 0 0 0-2 0zm13 11a1 1 0 1 0 0 2 1 1 0 0 0 0-2zm1-11a1 1 0 1 0-2 0 1 1 0 0 0 2 0z" opacity="1" fill="#00847A30" data-original="#00847A30"></path><path d="M15 7a2 2 0 1 1 0 4 2 2 0 0 1 0-4zM5 21a2 2 0 1 0-4 0 2 2 0 0 0 4 0zm10 2a2 2 0 1 0 0-4 2 2 0 0 0 0 4zM5 3a2 2 0 1 0-4 0 2 2 0 0 0 4 0zm4 14a2 2 0 1 0 0-4 2 2 0 0 0 0 4zm2-14a2 2 0 1 0-4 0 2 2 0 0 0 4 0zm10-2a2 2 0 1 0 0 4 2 2 0 0 0 0-4zm0 12a2 2 0 1 0 0 4 2 2 0 0 0 0-4z" fill="#00847A" opacity="1" data-original="#00847A"></path></g></g></svg>